<svg enable-background="new 0 0 1024 1024" height="1024" image-rendering="optimizeSpeed" viewBox="0 0 1024 1024" width="1024" xmlns="http://www.w3.org/2000/svg"><path d="m969.65 351.3q-8.6-20.85-19.4-40.85c-4.05-7.55-8.35-15.05-12.9-22.4-19.55-31.7-43.4-61.65-71.55-89.8-92.15-92.15-203.45-138.25-333.8-138.25s-241.6 46.1-333.75 138.25-138.25 203.4-138.25 333.75 46.1 241.65 138.25 333.8 203.4 138.2 333.75 138.2 241.65-46.05 333.8-138.2c50.75-50.8 87.55-107.4 110.35-169.75 18.55-50.85 27.85-105.5 27.85-164.05 0-44.9-5.45-87.55-16.4-127.95-1.25-4.55-2.55-9.1-3.9-13.6-4.1-13.3-8.8-26.35-14.05-39.15z" fill-opacity=".098039"/><path d="m849.15 181.65c-1.1-1.15-2.2-2.25-3.3-3.35-34.35-34.35-71.3-62.25-110.9-83.75-6.7-3.65-13.45-7.1-20.65-10.55-35.05-16.75-72.5-28.85-111.9-36-3.1-.55-6.2-1.1-9.35-1.6-.3-.05-.6-.1-.85-.15-4.2-.65-8.4-1.25-12.75-1.85-4.05-.5-8.2-1-12.4-1.45-3.6-.4-7.2-.75-11-1.05-4.45-.4-9.15-.75-13.9-1-.45-.05-.85-.05-1.3-.05-9.5-.55-19.1-.8-28.8-.8-9.35 0-18.6.25-27.9.75-1.7.1-3.4.2-5.1.3-3.65.2-7.3.45-11 .8-6.1.5-12.2 1.1-18.25 1.85-1.8.2-3.55.4-5.2.65-43.6 5.75-84.7 17.2-123.3 34.35-3.85 1.7-7.7 3.45-11.55 5.3-47.5 22.65-91.25 54.05-131.45 94.25-.55.55-1.05 1.05-1.55 1.55-.65.65-1.25 1.25-1.85 1.9-40.45 41.15-71.75 86.05-94 134.75-7.85 17.15-14.5 34.6-20.05 52.5q-20.8 67.2-20.8 143.05c0 128.75 44.95 238.9 134.85 330.4.6.6 1.2 1.2 1.85 1.85l1.55 1.55c40.4 40.35 84.45 71.9 131.45 94.25 3.95 1.85 7.75 3.6 11.55 5.3 5.55 2.45 10.8 4.65 16.1 6.75 6.45 2.6 12.6 4.85 18.8 6.95 28.6 9.8 58.2 16.7 88.4 20.65 1.9.25 3.55.45 5.2.65 11.5 1.4 22.85 2.35 34.35 2.95h.4c8.5.45 16.6.7 24.5.7h3c9.75 0 19.35-.25 28.8-.7.45-.05.85-.05 1.3-.1 2.5-.15 4.75-.3 6.95-.45 10.3-.75 20.45-1.75 30.35-3.05 7.8-1.05 15.45-2.25 22.95-3.6 1.9-.35 3.65-.7 5.4-1.05 7.95-1.55 15.8-3.3 23.4-5.15 28.9-7.25 56.6-17.2 83.1-29.75 7-3.4 13.85-6.9 20.65-10.55 25.2-13.7 49.35-30 72.4-48.85 13.25-10.9 26.05-22.5 38.5-34.95l3.3-3.3c.65-.65 1.25-1.3 1.9-1.95 22.6-23.25 42.2-47.5 58.9-72.9 17.55-26.55 31.95-54.45 43.25-83.65 3.95-10.25 7.55-20.65 10.75-31.15 11.7-38.65 18.3-79.4 19.8-122.35.2-6.05.3-12.25.3-18.5 0-.65 0-1.35 0-2 0-.35 0-.65 0-1-.2-40.65-4.95-79.5-14.3-117-1.1-4.35-2.35-9-3.65-13.6-2.25-7.85-4.75-15.8-7.55-23.8-.3-.75-.6-1.65-.9-2.55-4.25-12-9-23.8-14.4-35.6-2.7-5.95-5.65-12-8.75-18.05-3.8-7.4-7.95-14.95-12.3-22.4-19.05-32.4-42.7-63.2-71.15-92.45-.65-.65-1.25-1.3-1.9-1.95z" fill="#5996d7"/><path d="m953.2 684.05c3.95-10.25 7.55-20.65 10.75-31.15 11.7-38.65 18.3-79.4 19.8-122.35.2-6.05.3-12.25.3-18.5 0-.65 0-1.35 0-2 0-.35 0-.65 0-1q-.191-33.51-4.45-65.35l-75.55-75.55-581.825 346.575 264.05 264.05.025.025c5.7-.85 10.95-1.7 16.1-2.65 1.9-.35 3.65-.7 5.4-1.05 7.95-1.55 15.8-3.3 23.4-5.15 28.9-7.25 56.6-17.2 83.1-29.75 7-3.4 13.85-6.9 20.65-10.55 25.2-13.7 49.35-30 72.4-48.85 13.25-10.9 26.05-22.5 38.5-34.95l3.3-3.3c.65-.65 1.25-1.3 1.9-1.95 22.6-23.25 42.2-47.5 58.9-72.9 17.55-26.55 31.95-54.45 43.25-83.65z" fill-opacity=".2"/><path d="m796.85 326.85c-30.35-30.4-67.05-45.6-110.1-45.6-43 0-79.7 15.2-110.1 45.6-16.95 16.95-29.2 35.9-36.65 56.6v-5.25c-1.05-41.05-338.75-143.15-342.6-114.1-7.35 54.9 52.55 148.95 58.95 150.3h-24.25c2.1 9.35 5.1 18.6 9.05 27.65 7.5 17.1 17.35 35.2 33.1 50.7 38.2 37.7 82.25 49.15 84.2 49.25h-36.15c11.05 37.35 30.2 67.25 57.55 89.7 17.15 14.1 31.05 24.1 41.6 30-23.1 6.55-48.6 9.9-76.2 9.9-22.7 0-44-2.3-64.4-6.95 9.5 21.5 26.3 40.6 50.45 57.55 39.6 27.75 87.35 41.6 143.4 41.6 21.95 0 67.65-3.7 122.55-22.4 27.75-9.45 54.1-21.35 79.1-35.7 29.9-17.25 57.8-38 83.75-62.25 89.9-84.35 81.1-180.35 82.15-197.75l60-48.55-38.45 3.6 40.25-32.6-73.85 7q-11.35-26.35-33.35-48.3z" fill="#fff"/></svg>