<svg enable-background="new 0 0 1024 1024" height="1024" image-rendering="optimizeSpeed" viewBox="0 0 1024 1024" width="1024" xmlns="http://www.w3.org/2000/svg"><path d="m969.65 351.3q-8.6-20.85-19.4-40.85c-4.05-7.55-8.35-15.05-12.9-22.4-19.55-31.7-43.4-61.65-71.55-89.8-92.15-92.15-203.45-138.25-333.8-138.25s-241.6 46.1-333.75 138.25-138.25 203.4-138.25 333.75 46.1 241.65 138.25 333.8 203.4 138.2 333.75 138.2 241.65-46.05 333.8-138.2c50.75-50.8 87.55-107.4 110.35-169.75 18.55-50.85 27.85-105.5 27.85-164.05 0-44.9-5.45-87.55-16.4-127.95-1.25-4.55-2.55-9.1-3.9-13.6-4.1-13.3-8.8-26.35-14.05-39.15z" fill-opacity=".098039"/><path d="m982.1 517q0-2.45 0-4.95c0-130.35-46.05-241.6-138.2-333.75-91.9-91.85-202.85-137.95-332.8-138.2v474.95h2v1.95z" fill="#e85479"/><path d="m511.1 40.1c-.35 0-.65 0-1 0-130.35 0-241.6 46.05-333.75 138.2s-138.2 203.4-138.2 333.75v3h472.95z" fill="#00c0e6"/><path d="m513.1 517v-1.95h-2-472.95c.7 129.1 46.75 239.35 138.2 330.8 92.15 92.15 203.4 138.2 333.75 138.2h1 2z" fill="#ebc240"/><path d="m513.1 517v467.05c129.1-.75 239.35-46.8 330.8-138.2 90.95-91 137.05-200.6 138.2-328.85z" fill="#55da97"/><path d="m862.45 528.85q.35-8.326.35-16.8c0-96.85-34.25-179.55-102.7-248-68.5-68.45-151.2-102.7-248.05-102.7s-179.55 34.25-248 102.7-102.7 151.15-102.7 248 34.25 179.55 102.7 248.05c68.45 68.45 151.15 102.7 248 102.7 31.4 0 61.3-3.6 89.75-10.8 59.2-15 112-45.65 158.3-91.9 64.4-64.45 98.55-141.45 102.35-231.25z" fill="#fff"/><path d="m760.1 760.1q87.126-87.168 100.35-204.975l-196.15-196.125-127.25-24.275-172.575 67.475-14.925 234.85 221.275 221.275.025.025c10.75-1.75 20.95-3.8 30.95-6.35 59.2-15 112-45.65 158.3-91.9z" fill-opacity=".098039"/><path d="m717.15 531.15q0-15.1-1.8-28.1l-1.7-9.95h-193v57.3h136.85c-3.15 37.55-18.85 66.7-47.15 87.45-24.75 18.05-54.6 27.1-89.45 27.1-20.05 0-39.25-3.8-57.6-11.35-18.15-7.35-34.25-17.85-48.2-31.5-14.25-13.85-25.25-29.95-33-48.3-8.15-19.15-12.25-39.6-12.25-61.25 0-21.25 3.95-41.45 11.85-60.55 7.55-18.45 18.3-34.65 32.3-48.65 13.8-14.05 29.8-24.85 47.95-32.5 18.7-7.8 38.4-11.7 59.1-11.7 27.1 0 52.45 6.9 76 20.7 11.8 6.9 20.85 13.8 27.2 20.7l40.05-41.55c-8.55-9.55-21.05-19.1-37.5-28.65-32.75-19.1-68.7-28.65-107.8-28.65-29.1 0-56.95 5.8-83.55 17.45-25.2 11.1-47.6 26.65-67.25 46.6-19.3 19.65-34.25 42-44.85 67.05-10.9 25.55-16.35 51.8-16.35 78.7 0 26.65 5.2 52.65 15.6 78 10.35 25.25 25 47.75 43.95 67.5 19.55 20.45 42.2 36.25 67.85 47.45 27.35 12 56.55 18 87.65 18 27.85 0 53.8-4.6 77.95-13.85 23.7-9.05 44.3-22.1 61.85-39.05 17.65-17.1 31.2-37.25 40.65-60.45 9.75-23.85 14.65-49.85 14.65-77.95z" fill="#96a6a6"/></svg>