<?xml version="1.0" encoding="iso-8859-1"?>
<!-- Generator: Adobe Illustrator 21.1.0, SVG Export Plug-In . SVG Version: 6.00 Build 0)  -->
<svg version="1.1" id="Layer_1" xmlns="http://www.w3.org/2000/svg" xmlns:xlink="http://www.w3.org/1999/xlink" x="0px" y="0px"
	 viewBox="0 0 48 48" style="enable-background:new 0 0 48 48;" xml:space="preserve">
<linearGradient id="SVGID_1_" gradientUnits="userSpaceOnUse" x1="24" y1="6" x2="24" y2="45.172">
	<stop  offset="0" style="stop-color:#4CAF50"/>
	<stop  offset="0.489" style="stop-color:#4AAF50"/>
	<stop  offset="0.665" style="stop-color:#43AD50"/>
	<stop  offset="0.79" style="stop-color:#38AA50"/>
	<stop  offset="0.892" style="stop-color:#27A550"/>
	<stop  offset="0.978" style="stop-color:#11A050"/>
	<stop  offset="1" style="stop-color:#0A9E50"/>
</linearGradient>
<path style="fill:url(#SVGID_1_);" d="M39,44H9c-1.105,0-2-0.895-2-2V6c0-1.105,0.895-2,2-2h30c1.105,0,2,0.895,2,2v36
	C41,43.105,40.105,44,39,44z"/>
<g>
	<g style="opacity:0.05;">
		<path d="M29.172,6c0.53,0,1.039,0.211,1.414,0.586l7.828,7.828C38.789,14.789,39,15.298,39,15.828V41c0,0.552-0.448,1-1,1H10
			c-0.552,0-1-0.448-1-1V7c0-0.552,0.448-1,1-1H29.172 M29.172,5H10C8.897,5,8,5.897,8,7v34c0,1.103,0.897,2,2,2h28
			c1.103,0,2-0.897,2-2V15.828c0-0.801-0.312-1.555-0.879-2.121l-7.828-7.828C30.726,5.312,29.973,5,29.172,5L29.172,5z"/>
	</g>
	<g style="opacity:0.07;">
		<path d="M29.172,6c0.53,0,1.039,0.211,1.414,0.586l7.828,7.828C38.789,14.789,39,15.298,39,15.828V41c0,0.552-0.448,1-1,1H10
			c-0.552,0-1-0.448-1-1V7c0-0.552,0.448-1,1-1H29.172 M29.172,5.5H10C9.173,5.5,8.5,6.173,8.5,7v34c0,0.827,0.673,1.5,1.5,1.5h28
			c0.827,0,1.5-0.673,1.5-1.5V15.828c0-0.668-0.26-1.296-0.732-1.768l-7.828-7.828C30.467,5.76,29.839,5.5,29.172,5.5L29.172,5.5z"
			/>
	</g>
	<linearGradient id="SVGID_2_" gradientUnits="userSpaceOnUse" x1="24" y1="18.3333" x2="24" y2="61.0029">
		<stop  offset="0" style="stop-color:#F9F9F9"/>
		<stop  offset="0.2601" style="stop-color:#F0F1F2"/>
		<stop  offset="0.6784" style="stop-color:#D9DCDF"/>
		<stop  offset="1" style="stop-color:#C2C8CC"/>
	</linearGradient>
	<path style="fill:url(#SVGID_2_);" d="M10,6C9.448,6,9,6.448,9,7v34c0,0.552,0.448,1,1,1h28c0.552,0,1-0.448,1-1V15.828
		c0-0.53-0.211-1.039-0.586-1.414l-7.828-7.828C30.211,6.211,29.702,6,29.172,6H10z"/>
</g>
<g>
	<path style="fill:#C0EDC0;" d="M17.5,34h-5c-0.276,0-0.5-0.224-0.5-0.5v-1c0-0.276,0.224-0.5,0.5-0.5h5c0.276,0,0.5,0.224,0.5,0.5
		v1C18,33.776,17.776,34,17.5,34z"/>
	<path style="fill:#C0EDC0;" d="M25.5,34h-5c-0.276,0-0.5-0.224-0.5-0.5v-1c0-0.276,0.224-0.5,0.5-0.5h5c0.276,0,0.5,0.224,0.5,0.5
		v1C26,33.776,25.776,34,25.5,34z"/>
	<path style="fill:#C0EDC0;" d="M33.5,34h-5c-0.276,0-0.5-0.224-0.5-0.5v-1c0-0.276,0.224-0.5,0.5-0.5h5c0.276,0,0.5,0.224,0.5,0.5
		v1C34,33.776,33.776,34,33.5,34z"/>
	<path style="fill:#C0EDC0;" d="M17.5,31h-5c-0.276,0-0.5-0.224-0.5-0.5v-1c0-0.276,0.224-0.5,0.5-0.5h5c0.276,0,0.5,0.224,0.5,0.5
		v1C18,30.776,17.776,31,17.5,31z"/>
	<path style="fill:#C0EDC0;" d="M25.5,31h-5c-0.276,0-0.5-0.224-0.5-0.5v-1c0-0.276,0.224-0.5,0.5-0.5h5c0.276,0,0.5,0.224,0.5,0.5
		v1C26,30.776,25.776,31,25.5,31z"/>
	<path style="fill:#C0EDC0;" d="M33.5,31h-5c-0.276,0-0.5-0.224-0.5-0.5v-1c0-0.276,0.224-0.5,0.5-0.5h5c0.276,0,0.5,0.224,0.5,0.5
		v1C34,30.776,33.776,31,33.5,31z"/>
	<path style="fill:#C0EDC0;" d="M17.5,28h-5c-0.276,0-0.5-0.224-0.5-0.5v-1c0-0.276,0.224-0.5,0.5-0.5h5c0.276,0,0.5,0.224,0.5,0.5
		v1C18,27.776,17.776,28,17.5,28z"/>
	<path style="fill:#C0EDC0;" d="M25.5,28h-5c-0.276,0-0.5-0.224-0.5-0.5v-1c0-0.276,0.224-0.5,0.5-0.5h5c0.276,0,0.5,0.224,0.5,0.5
		v1C26,27.776,25.776,28,25.5,28z"/>
	<path style="fill:#C0EDC0;" d="M33.5,28h-5c-0.276,0-0.5-0.224-0.5-0.5v-1c0-0.276,0.224-0.5,0.5-0.5h5c0.276,0,0.5,0.224,0.5,0.5
		v1C34,27.776,33.776,28,33.5,28z"/>
	<path style="fill:#9FDD9F;" d="M17.5,25h-5c-0.276,0-0.5-0.224-0.5-0.5v-1c0-0.276,0.224-0.5,0.5-0.5h5c0.276,0,0.5,0.224,0.5,0.5
		v1C18,24.776,17.776,25,17.5,25z"/>
	<path style="fill:#9FDD9F;" d="M25.5,25h-5c-0.276,0-0.5-0.224-0.5-0.5v-1c0-0.276,0.224-0.5,0.5-0.5h5c0.276,0,0.5,0.224,0.5,0.5
		v1C26,24.776,25.776,25,25.5,25z"/>
	<path style="fill:#9FDD9F;" d="M33.5,25h-5c-0.276,0-0.5-0.224-0.5-0.5v-1c0-0.276,0.224-0.5,0.5-0.5h5c0.276,0,0.5,0.224,0.5,0.5
		v1C34,24.776,33.776,25,33.5,25z"/>
	<path style="fill:#C0EDC0;" d="M17.5,37h-5c-0.276,0-0.5-0.224-0.5-0.5v-1c0-0.276,0.224-0.5,0.5-0.5h5c0.276,0,0.5,0.224,0.5,0.5
		v1C18,36.776,17.776,37,17.5,37z"/>
	<path style="fill:#C0EDC0;" d="M25.5,37h-5c-0.276,0-0.5-0.224-0.5-0.5v-1c0-0.276,0.224-0.5,0.5-0.5h5c0.276,0,0.5,0.224,0.5,0.5
		v1C26,36.776,25.776,37,25.5,37z"/>
	<path style="fill:#C0EDC0;" d="M33.5,37h-5c-0.276,0-0.5-0.224-0.5-0.5v-1c0-0.276,0.224-0.5,0.5-0.5h5c0.276,0,0.5,0.224,0.5,0.5
		v1C34,36.776,33.776,37,33.5,37z"/>
</g>
<g>
	<linearGradient id="SVGID_3_" gradientUnits="userSpaceOnUse" x1="25.5" y1="31.9635" x2="25.5" y2="40.2071">
		<stop  offset="0" style="stop-color:#2AA4F4"/>
		<stop  offset="1" style="stop-color:#007AD9"/>
	</linearGradient>
	<path style="fill:url(#SVGID_3_);" d="M27,39h-3v-6.563C24,32.196,24.224,32,24.5,32h2c0.276,0,0.5,0.196,0.5,0.438V39z"/>
	<linearGradient id="SVGID_4_" gradientUnits="userSpaceOnUse" x1="28.5" y1="30.9583" x2="28.5" y2="40.3795">
		<stop  offset="0" style="stop-color:#D43A02"/>
		<stop  offset="1" style="stop-color:#B9360C"/>
	</linearGradient>
	<path style="fill:url(#SVGID_4_);" d="M29.979,39h-2.958C27.009,39,27,38.991,27,38.979V30.5c0-0.276,0.224-0.5,0.5-0.5h2
		c0.276,0,0.5,0.224,0.5,0.5v8.479C30,38.991,29.991,39,29.979,39z"/>
	<linearGradient id="SVGID_5_" gradientUnits="userSpaceOnUse" x1="31.5" y1="32.5667" x2="31.5" y2="40.1036">
		<stop  offset="0" style="stop-color:#FFD747"/>
		<stop  offset="0.2102" style="stop-color:#FFD645"/>
		<stop  offset="0.4396" style="stop-color:#FED43E"/>
		<stop  offset="0.6508" style="stop-color:#FCCF33"/>
		<stop  offset="0.7662" style="stop-color:#FAC922"/>
		<stop  offset="0.8973" style="stop-color:#F7C10C"/>
		<stop  offset="1" style="stop-color:#F5BC00"/>
	</linearGradient>
	<path style="fill:url(#SVGID_5_);" d="M33,39h-3v-3.6c0-0.221,0.224-0.4,0.5-0.4h2c0.276,0,0.5,0.179,0.5,0.4V39z"/>
	<linearGradient id="SVGID_6_" gradientUnits="userSpaceOnUse" x1="34.5" y1="30.9583" x2="34.5" y2="40.3795">
		<stop  offset="0" style="stop-color:#4CAF50"/>
		<stop  offset="0.489" style="stop-color:#4AAF50"/>
		<stop  offset="0.665" style="stop-color:#43AD50"/>
		<stop  offset="0.79" style="stop-color:#38AA50"/>
		<stop  offset="0.892" style="stop-color:#27A550"/>
		<stop  offset="0.978" style="stop-color:#11A050"/>
		<stop  offset="1" style="stop-color:#0A9E50"/>
	</linearGradient>
	<path style="fill:url(#SVGID_6_);" d="M36,39h-3v-5.5c0-0.276,0.224-0.5,0.5-0.5h2c0.276,0,0.5,0.224,0.5,0.5V39z"/>
</g>
</svg>